<?xml version="1.0" encoding="UTF-8"?>
<!DOCTYPE svg PUBLIC "-//W3C//DTD SVG 1.1//EN" "http://www.w3.org/Graphics/SVG/1.1/DTD/svg11.dtd">
<svg xmlns="http://www.w3.org/2000/svg" version="1.1" style="display: block;" viewBox="0 0 2048 2024" width="871" height="861" preserveAspectRatio="none">
<defs>
	<linearGradient id="Gradient1" gradientUnits="userSpaceOnUse" x1="728.238" y1="1118.42" x2="728.762" y2="1130.58">
		<stop class="stop0" offset="0" stop-opacity="1" stop-color="rgb(38,57,90)"/>
		<stop class="stop1" offset="1" stop-opacity="1" stop-color="rgb(82,93,129)"/>
	</linearGradient>
</defs>
<path transform="translate(0,0)" fill="rgb(255,255,254)" d="M 0 0 L 2048 0 L 2048 2024 L 0 2024 L 0 0 z"/>
<path transform="translate(0,0)" fill="rgb(203,40,49)" d="M 54.6052 1308.18 C 40.838 1268.1 23.7821 1200.33 17.6483 1158.84 C 4.69842 1075.1 2.57108 990.033 11.3187 905.743 C 15.5132 866.958 24.9903 825.088 33.7481 786.972 C 65.4225 649.115 120.254 521.961 204.928 408.073 C 345.306 220.307 546.727 87.3269 774.547 32.0075 C 808.978 23.6087 854.149 15.8971 889.425 11.1242 C 946.581 3.39068 1012.43 0.397986 1070.05 3.75726 C 1095.64 5.24886 1124.64 5.71298 1149.8 9.02841 C 1264.13 24.0964 1377.27 57.8997 1480.17 110.129 C 1514.89 127.752 1561.02 153.125 1592.17 176.302 C 1602.45 183.547 1669.84 232.188 1676.34 240.596 C 1707.03 264.645 1746.75 303.392 1772.9 331.666 C 1786.34 344.067 1797.17 361.057 1811.35 371.442 C 1792.39 366.921 1752.23 370.145 1730.34 369.738 C 1711.32 370.316 1688.25 370.185 1669.21 369.828 C 1631.92 371.684 1583.26 370.13 1544.66 370.113 L 1258.14 369.087 L 870.646 369.048 L 745.765 369.919 C 728.946 370.017 710.096 370.705 693.455 370.203 C 674.17 371.088 652.667 371.247 633.859 374.52 C 522.557 394.095 415.53 425.176 337.147 511.535 C 280.545 573.896 261.925 632.91 251.543 715.404 C 243.406 780.058 250.869 838.37 273.444 899.678 C 293.116 949.057 310.092 974.982 347.049 1013.56 C 358.231 1022.53 368.64 1032.71 380.167 1041.94 C 387.515 1047.83 404.629 1057.42 410.2 1062.3 C 429.708 1073.72 444.763 1080.47 466.166 1088.44 C 471.963 1090.59 486.761 1095.05 491.244 1097.24 C 504.599 1100.66 517.971 1104 531.36 1107.28 C 533.339 1107.77 545.836 1110.54 546.644 1110.86 C 565.002 1114.12 608.074 1120.48 626.333 1121.76 C 670.593 1123.36 714.882 1124.01 759.17 1123.73 C 773.456 1123.72 816.226 1122.62 828.953 1123.98 C 883.565 1122.74 940.734 1123.6 995.499 1123.63 C 1064.17 1123.24 1132.83 1123.21 1201.5 1123.53 L 1305.18 1123.95 C 1339.34 1124.13 1372.55 1123.58 1406.43 1129.25 C 1441.76 1135.17 1468.52 1150.73 1477.15 1187.35 C 1480.76 1196.58 1480.9 1218.41 1479.82 1228.39 C 1477.07 1253.7 1467.26 1272.04 1447.7 1288.21 C 1430.38 1302.53 1406.72 1307.16 1384.64 1308.44 C 1348.84 1310.53 1311.26 1310.06 1275.25 1310.11 L 1105.19 1310.13 L 619.072 1309.83 L 222.814 1309.16 L 107.726 1308.13 C 93.3938 1308.07 67.2078 1309.57 54.6052 1308.18 z"/>
<path transform="translate(0,0)" fill="rgb(75,70,94)" d="M 828.953 1123.98 C 883.565 1122.74 940.734 1123.6 995.499 1123.63 C 1064.17 1123.24 1132.83 1123.21 1201.5 1123.53 L 1305.18 1123.95 C 1339.34 1124.13 1372.55 1123.58 1406.43 1129.25 C 1441.76 1135.17 1468.52 1150.73 1477.15 1187.35 C 1470.06 1178.47 1466.73 1162.14 1457.08 1154.47 C 1421.3 1126.06 1352.96 1128.62 1311 1128.46 L 1194.87 1128.24 L 914.872 1128.17 C 866.129 1128.72 817.382 1128.91 768.637 1128.75 C 774.999 1126.61 824.592 1126.99 835.73 1126.73 C 832.336 1123.48 835.205 1127.89 828.953 1123.98 z"/>
<path transform="translate(0,0)" fill="rgb(147,16,35)" d="M 1732.28 295.039 L 1730.33 295.372 C 1717.37 287.833 1723.95 283.826 1703 277.612 L 1702.27 278.45 C 1707.49 284.579 1720.75 291.913 1723.25 296.303 C 1718.17 294.693 1671.26 256.734 1664.97 250.966 C 1668.79 252.812 1681.22 262.606 1685.27 265.667 C 1685.81 261.965 1683.29 258.708 1684.93 255.539 C 1686.52 254 1681.92 250.868 1680.77 249.865 C 1659.14 230.963 1635.26 214.37 1614.22 194.933 C 1609.04 190.146 1593.49 182.539 1592.17 176.302 C 1602.45 183.547 1669.84 232.188 1676.34 240.596 C 1707.03 264.645 1746.75 303.392 1772.9 331.666 L 1769.06 332.113 C 1765.96 326.012 1738.54 300.24 1732.28 295.039 z"/>
<path transform="translate(0,0)" fill="rgb(46,20,24)" d="M 1676.34 240.596 C 1707.03 264.645 1746.75 303.392 1772.9 331.666 L 1769.06 332.113 C 1765.96 326.012 1738.54 300.24 1732.28 295.039 C 1727.96 285.844 1678.49 247.663 1676.34 240.596 z"/>
<path transform="translate(0,0)" fill="rgb(46,20,24)" d="M 349.867 1030.78 C 346.036 1021.49 334.205 1016.17 329.709 1001.82 C 334.662 999.432 338.043 1011.26 347.049 1013.56 C 358.231 1022.53 368.64 1032.71 380.167 1041.94 C 387.515 1047.83 404.629 1057.42 410.2 1062.3 C 415.05 1070.64 423.469 1070.6 426.624 1075.78 L 427.606 1077.38 C 427.869 1077.82 428.132 1078.27 428.395 1078.72 C 420.857 1075.94 419.276 1076.01 411.446 1075.89 C 393.01 1066.01 363.479 1045.83 349.867 1030.78 z"/>
<path transform="translate(0,0)" fill="url(#Gradient1)" d="M 626.333 1121.76 C 670.593 1123.36 714.882 1124.01 759.17 1123.73 C 773.456 1123.72 816.226 1122.62 828.953 1123.98 C 835.205 1127.89 832.336 1123.48 835.73 1126.73 C 824.592 1126.99 774.999 1126.61 768.637 1128.75 L 687.888 1128.84 C 675.301 1128.81 637.852 1128.99 627.266 1126.19 C 625.535 1125.24 624.111 1124.44 622.419 1123.41 L 626.333 1121.76 z"/>
<path transform="translate(0,0)" fill="rgb(108,22,27)" d="M 410.2 1062.3 C 429.708 1073.72 444.763 1080.47 466.166 1088.44 C 471.963 1090.59 486.761 1095.05 491.244 1097.24 C 486.944 1097.44 484.453 1096.87 480.19 1096.04 L 480.802 1096.32 L 480.846 1095.62 L 479.489 1096 C 482.048 1096.83 488.51 1100.12 490.352 1102.15 C 495.537 1103.81 498.649 1105.08 503.576 1107.21 C 492.592 1107.8 485.655 1104.55 475.503 1102.33 C 451.475 1097.08 432.476 1088.64 411.446 1075.89 C 419.276 1076.01 420.857 1075.94 428.395 1078.72 C 428.132 1078.27 427.869 1077.82 427.606 1077.38 L 426.624 1075.78 C 423.469 1070.6 415.05 1070.64 410.2 1062.3 z"/>
<path transform="translate(0,0)" fill="rgb(62,50,64)" d="M 410.2 1062.3 C 429.708 1073.72 444.763 1080.47 466.166 1088.44 C 471.963 1090.59 486.761 1095.05 491.244 1097.24 C 486.944 1097.44 484.453 1096.87 480.19 1096.04 L 480.802 1096.32 L 480.846 1095.62 L 479.489 1096 C 482.048 1096.83 488.51 1100.12 490.352 1102.15 C 474.97 1099.8 442.815 1085.96 428.395 1078.72 C 428.132 1078.27 427.869 1077.82 427.606 1077.38 L 426.624 1075.78 C 423.469 1070.6 415.05 1070.64 410.2 1062.3 z"/>
<path transform="translate(0,0)" fill="rgb(78,15,24)" d="M 349.867 1030.78 C 335.876 1020 298.886 976.061 291.708 961.025 L 292.275 960.457 C 294.722 962.017 296.533 963.453 299.349 964.112 C 299.734 954.898 272.13 915.42 273.444 899.678 C 293.116 949.057 310.092 974.982 347.049 1013.56 C 338.043 1011.26 334.662 999.432 329.709 1001.82 C 334.205 1016.17 346.036 1021.49 349.867 1030.78 z"/>
<path transform="translate(0,0)" fill="rgb(147,16,35)" d="M 1772.9 331.666 C 1786.34 344.067 1797.17 361.057 1811.35 371.442 C 1792.39 366.921 1752.23 370.145 1730.34 369.738 C 1749.73 366.672 1768.39 367.661 1787.85 366.88 C 1791.29 366.742 1791.66 366.236 1793.21 364.255 C 1792.75 358.419 1775.38 341.737 1769.88 333.379 L 1769.06 332.113 L 1772.9 331.666 z"/>
<path transform="translate(0,0)" fill="rgb(29,29,59)" d="M 490.352 1102.15 C 488.51 1100.12 482.048 1096.83 479.489 1096 L 480.846 1095.62 L 480.802 1096.32 L 480.19 1096.04 C 484.453 1096.87 486.944 1097.44 491.244 1097.24 C 504.599 1100.66 517.971 1104 531.36 1107.28 C 533.339 1107.77 545.836 1110.54 546.644 1110.86 L 548.093 1111.76 C 550.33 1113.12 551.608 1113.56 554.045 1114.52 C 551.678 1115.79 552.381 1115.43 549.664 1116 C 539.775 1115.93 514.331 1109.61 503.576 1107.21 C 498.649 1105.08 495.537 1103.81 490.352 1102.15 z"/>
<path transform="translate(0,0)" fill="rgb(21,37,72)" d="M 546.644 1110.86 C 565.002 1114.12 608.074 1120.48 626.333 1121.76 L 622.419 1123.41 C 624.111 1124.44 625.535 1125.24 627.266 1126.19 C 604.594 1125.8 572.084 1120.03 549.664 1116 C 552.381 1115.43 551.678 1115.79 554.045 1114.52 C 551.608 1113.56 550.33 1113.12 548.093 1111.76 L 546.644 1110.86 z"/>
<path transform="translate(0,0)" fill="rgb(203,40,49)" d="M 1003.5 695.801 C 1047.02 693.82 1101.54 695.19 1145.85 695.179 L 1431.57 695.881 L 1619.17 696.22 L 1677.11 696.373 C 1685.81 696.401 1700.75 696.037 1709.02 696.826 C 1772.59 694.946 1839.78 697.689 1903.69 696.697 C 1916.23 696.502 1975.04 695.488 1983.34 697.654 C 1989.13 704.222 1996.14 730.008 1998.48 739.793 C 2006.9 761.81 2016.02 806.193 2020.69 830.054 C 2031.75 884.057 2037.5 939.014 2037.85 994.137 C 2038.9 1131.24 2004.76 1292.19 1948.93 1417.04 C 1863.24 1606.95 1720.8 1765.64 1541.23 1871.29 C 1489.76 1901.07 1429.43 1927.35 1373.9 1948.5 C 1207.58 2010.77 1027.77 2027.99 852.652 1998.43 C 815.411 1992.51 778.898 1985.67 742.628 1975.2 C 595.144 1932.66 457.651 1859.66 343.96 1755.95 C 321.218 1735.21 298.307 1717.19 279.463 1692.52 C 274.027 1685.41 264.376 1679.06 258.818 1671.84 C 250.475 1664.49 234.068 1644.22 226.207 1634.87 C 238.692 1634.75 251.178 1634.82 263.661 1635.06 C 297.914 1634.89 350.226 1633.24 383.267 1635.1 C 415.858 1634.09 452.301 1635 485.221 1635.03 L 683.432 1635.25 L 838.267 1635.28 C 859.869 1635.31 893.785 1634.32 914.804 1635.61 L 1197.37 1637.84 C 1219.15 1637.94 1240.93 1637.9 1262.71 1637.73 C 1273.86 1637.55 1289.04 1636.58 1299.66 1636.88 C 1308.68 1635.19 1335.33 1634.58 1344.98 1634.28 C 1364.72 1633.66 1386.78 1632.06 1406.35 1632.15 C 1470.03 1627.74 1532.95 1615.73 1593.78 1596.38 C 1602 1592.41 1615.17 1589.21 1624.37 1584.83 C 1666.02 1565.03 1703.76 1542.16 1736.68 1509.86 C 1743.49 1501.84 1750.43 1493.93 1757.51 1486.15 C 1762.63 1476.62 1775.54 1460.79 1783.28 1447.37 C 1814.8 1392.69 1831.84 1328.72 1840.44 1266.72 C 1846.88 1220.29 1839.95 1165.12 1827.35 1120.64 C 1822.48 1102.24 1817.94 1082.78 1809.7 1065.55 C 1714.3 866.261 1466.37 874.388 1283.01 875.764 C 1156.7 876.951 1030.38 877.358 904.07 876.984 L 792.145 876.654 C 761.858 876.526 734.328 876.961 703.993 873.809 C 670.595 871.205 646.633 863.789 624.44 837.643 C 593.713 801.443 604.693 741.519 641.019 712.858 C 665.009 693.074 782.814 695.785 818.569 696.238 L 942.698 695.74 C 958.141 695.69 989.948 694.62 1003.5 695.801 z"/>
<path transform="translate(0,0)" fill="rgb(108,22,27)" d="M 1003.5 695.801 C 1047.02 693.82 1101.54 695.19 1145.85 695.179 L 1431.57 695.881 L 1619.17 696.22 L 1677.11 696.373 C 1685.81 696.401 1700.75 696.037 1709.02 696.826 C 1706.58 697 1707.18 696.608 1705.3 697.708 L 1704.93 697.225 L 1704.66 697.479 C 1711.95 698.097 1736.28 697.242 1739.75 698.933 C 1726.3 699.765 1707.82 699.158 1694.07 699.108 L 1620.63 699.043 L 1385.94 698.111 L 845.197 699.341 C 811.479 699.402 777.86 699.651 744.154 700.386 C 720.827 700.894 696.566 700.554 673.551 704.674 C 668.125 705.646 643.21 713.119 641.019 712.858 C 665.009 693.074 782.814 695.785 818.569 696.238 L 942.698 695.74 C 958.141 695.69 989.948 694.62 1003.5 695.801 z"/>
<path transform="translate(0,0)" fill="rgb(19,8,13)" d="M 818.569 696.238 L 942.698 695.74 C 958.141 695.69 989.948 694.62 1003.5 695.801 C 1013.45 696.766 1027.63 696.375 1038 696.395 L 1098.66 696.431 C 1156.1 696.45 1215.05 697.143 1272.39 696.256 C 1260.54 697.375 1237.48 696.648 1224.46 696.615 L 1137.83 696.545 L 881.948 697.986 C 872.384 698.013 791.318 698.896 788.951 697.786 C 798.21 695.609 808.568 698.57 818.569 696.238 z"/>
<path transform="translate(0,0)" fill="rgb(75,70,94)" d="M 383.267 1635.1 C 415.858 1634.09 452.301 1635 485.221 1635.03 L 683.432 1635.25 L 838.267 1635.28 C 859.869 1635.31 893.785 1634.32 914.804 1635.61 L 910.701 1636.88 L 910.794 1637.62 L 918.042 1639 C 890.537 1640.2 855.72 1639.29 827.849 1639.29 L 672.003 1639.33 L 508.276 1639.33 C 477.775 1639.36 444.95 1639.89 414.635 1639.01 C 413.253 1637.29 412.38 1637.75 409.443 1637.29 C 413.9 1636.37 417.754 1638.14 420.667 1636.07 C 418.972 1634.86 388.496 1635.84 383.267 1635.1 z"/>
<path transform="translate(0,0)" fill="rgb(108,22,27)" d="M 1736.68 1509.86 C 1734.78 1519.97 1686.12 1557.5 1675.66 1563.95 C 1670.46 1572.26 1666.95 1578.11 1660.75 1585.68 C 1637.22 1601.09 1594.75 1605.85 1566.77 1611.05 C 1554.67 1613.31 1526.53 1623.16 1515.77 1621.15 C 1534.2 1615.66 1563.93 1612.24 1580.83 1604.5 C 1586 1601.84 1588.51 1601.85 1593.86 1598.15 L 1593.78 1596.38 C 1602 1592.41 1615.17 1589.21 1624.37 1584.83 C 1666.02 1565.03 1703.76 1542.16 1736.68 1509.86 z"/>
<path transform="translate(0,0)" fill="rgb(78,15,24)" d="M 1736.68 1509.86 C 1734.78 1519.97 1686.12 1557.5 1675.66 1563.95 L 1675.79 1561.56 C 1673.22 1562.28 1658.28 1573.01 1653.86 1575.64 C 1638.55 1584.72 1598.14 1604.89 1580.83 1604.5 C 1586 1601.84 1588.51 1601.85 1593.86 1598.15 L 1593.78 1596.38 C 1602 1592.41 1615.17 1589.21 1624.37 1584.83 C 1666.02 1565.03 1703.76 1542.16 1736.68 1509.86 z"/>
<path transform="translate(0,0)" fill="rgb(46,20,24)" d="M 914.804 1635.61 L 1197.37 1637.84 C 1219.15 1637.94 1240.93 1637.9 1262.71 1637.73 C 1273.86 1637.55 1289.04 1636.58 1299.66 1636.88 C 1302.4 1637.14 1305.78 1636.88 1307.23 1638.36 C 1304.07 1639.04 1301.68 1639.48 1298.47 1639.92 C 1283.24 1640.95 1261.97 1640.45 1246.26 1640.42 L 1158.72 1640.08 L 918.042 1639 L 910.794 1637.62 L 910.701 1636.88 L 914.804 1635.61 z"/>
<path transform="translate(0,0)" fill="rgb(147,16,35)" d="M 1736.68 1509.86 C 1743.49 1501.84 1750.43 1493.93 1757.51 1486.15 C 1756.65 1502.42 1723.5 1529.24 1711.62 1540.57 L 1712.14 1541.01 C 1714.57 1540.14 1716.71 1538.9 1718.87 1539.25 C 1718.32 1542.26 1718.18 1542.54 1715.39 1544.27 L 1715.75 1543.89 C 1717.78 1545.14 1716.92 1544.47 1718.41 1545.84 C 1715.47 1546.89 1713.83 1547.14 1711.42 1548.99 L 1711.87 1549.65 L 1716.14 1548.07 C 1709.59 1556.56 1671.33 1579.67 1660.75 1585.68 C 1666.95 1578.11 1670.46 1572.26 1675.66 1563.95 C 1686.12 1557.5 1734.78 1519.97 1736.68 1509.86 z"/>
<path transform="translate(0,0)" fill="rgb(78,15,24)" d="M 1709.02 696.826 C 1772.59 694.946 1839.78 697.689 1903.69 696.697 C 1916.23 696.502 1975.04 695.488 1983.34 697.654 C 1989.13 704.222 1996.14 730.008 1998.48 739.793 C 1991.13 734.258 1990.62 707.58 1978.37 699.412 C 1899.31 699.124 1818.54 700.087 1739.75 698.933 C 1736.28 697.242 1711.95 698.097 1704.66 697.479 L 1704.93 697.225 L 1705.3 697.708 C 1707.18 696.608 1706.58 697 1709.02 696.826 z"/>
<path transform="translate(0,0)" fill="rgb(19,8,13)" d="M 1593.78 1596.38 L 1593.86 1598.15 C 1588.51 1601.85 1586 1601.84 1580.83 1604.5 C 1563.93 1612.24 1534.2 1615.66 1515.77 1621.15 C 1494.95 1624.33 1474.75 1627.86 1454.02 1631.4 C 1446.07 1632.76 1428.98 1633.39 1420.26 1633.97 C 1414.93 1633.58 1411.56 1633.05 1406.35 1632.15 C 1470.03 1627.74 1532.95 1615.73 1593.78 1596.38 z"/>
<path transform="translate(0,0)" fill="rgb(62,50,64)" d="M 263.661 1635.06 C 297.914 1634.89 350.226 1633.24 383.267 1635.1 C 388.496 1635.84 418.972 1634.86 420.667 1636.07 C 417.754 1638.14 413.9 1636.37 409.443 1637.29 C 412.38 1637.75 413.253 1637.29 414.635 1639.01 C 408.774 1639.73 388.653 1639.37 382.006 1639.39 C 357.843 1639.47 333.68 1639.35 309.52 1639.02 C 294.648 1636.2 280.566 1639.31 263.661 1635.06 z"/>
<path transform="translate(0,0)" fill="rgb(62,50,64)" d="M 1299.66 1636.88 C 1308.68 1635.19 1335.33 1634.58 1344.98 1634.28 C 1364.72 1633.66 1386.78 1632.06 1406.35 1632.15 C 1411.56 1633.05 1414.93 1633.58 1420.26 1633.97 C 1413.09 1635.57 1399.78 1636.41 1392.09 1637.1 C 1360.97 1639.91 1329.71 1640.85 1298.47 1639.92 C 1301.68 1639.48 1304.07 1639.04 1307.23 1638.36 C 1305.78 1636.88 1302.4 1637.14 1299.66 1636.88 z"/>
<path transform="translate(0,0)" fill="rgb(108,22,27)" d="M 226.207 1634.87 C 238.692 1634.75 251.178 1634.82 263.661 1635.06 C 280.566 1639.31 294.648 1636.2 309.52 1639.02 C 287.563 1640.01 264.123 1641.99 242.665 1638.05 C 240.059 1637.57 237.774 1638.97 235.447 1640.19 C 235.39 1647.32 257.622 1663.12 258.818 1671.84 C 250.475 1664.49 234.068 1644.22 226.207 1634.87 z"/>
<path transform="translate(0,0)" fill="rgb(201,198,200)" d="M 1839.84 411.541 C 1851.72 417.1 1954.46 596.994 1959.4 619.342 C 1948.25 602.061 1939.83 579.96 1929.04 561.868 C 1899.17 511.739 1871.52 460.585 1839.84 411.541 z"/>
</svg>