<!-- Generated by SVGMaker - https://svgmaker.io --><!-- Prompt: convert this image logo into svg --><!-- Quality: medium --><!-- Type: edit --><!-- Created: 2025-10-25T04:43:34.943Z --><svg version="1.1" xmlns="http://www.w3.org/2000/svg" style="display: block;" viewBox="0 0 2048 2048" width="1024" height="1024" preserveAspectRatio="none">
<path transform="translate(0,0)" fill="rgb(255,255,255)" d="M 0 0 L 2048 0 L 2048 2048 L 0 2048 L 0 0 z"></path>
<path transform="translate(0,0)" fill="rgb(216,52,50)" d="M 1970.61 660.84 C 1963.75 638.304 1952.72 616.114 1943.47 594.438 C 1939.44 585.023 1930.64 571.942 1929.19 563.241 C 1937.1 572.691 1970.18 648.24 1972.38 661.954 C 1975.09 673.61 1983.49 695.093 1987.54 707.308 C 1994.98 729.755 2001.47 752.503 2007.01 775.493 C 2041.02 910.854 2046.77 1051.77 2023.89 1189.45 C 1977.76 1453.12 1829.7 1688.03 1611.74 1843.4 C 1381.77 2006.12 1119.5 2061.97 842.39 2014.14 C 615.344 1972.84 409.219 1855.22 258.159 1680.75 C 232.178 1650.88 210.15 1620.21 187.393 1587.91 L 1073.68 1587.82 L 1337.93 1587.84 L 1417.49 1587.85 C 1440.53 1587.85 1461.85 1588.24 1484.88 1586 C 1584.08 1576.35 1680.83 1531.32 1744.79 1453.51 C 1813.27 1370.2 1836.28 1263.61 1826.61 1157.72 C 1819.76 1082.76 1798.52 1034.42 1751.52 976.983 C 1664.93 871.165 1554.42 845.611 1423.8 840.339 C 1348.66 837.305 1275.79 838.156 1200.19 838.151 L 785.962 838.149 L 715.653 838.196 C 687.12 838.253 657.477 841.905 634.318 821.843 C 580.759 775.445 600.025 668.312 677.461 661.868 C 685.238 660.232 704.252 660.728 712.848 660.752 L 774.328 660.931 L 1014.34 660.87 L 1970.61 660.84 z"></path>
<path transform="translate(0,0)" fill="rgb(236,207,205)" d="M 1970.61 660.84 C 1963.75 638.304 1952.72 616.114 1943.47 594.438 C 1939.44 585.023 1930.64 571.942 1929.19 563.241 C 1937.1 572.691 1970.18 648.24 1972.38 661.954 L 677.461 661.868 C 685.238 660.232 704.252 660.728 712.848 660.752 L 774.328 660.931 L 1014.34 660.87 L 1970.61 660.84 z"></path>
<path transform="translate(0,0)" fill="rgb(216,52,50)" d="M 49.8531 1288.06 C 45.9738 1266.29 38.7085 1244.68 33.9841 1223 C -87.3131 666.607 290.69 123.927 848.178 24.7491 C 1112.89 -21.8598 1385.3 38.202 1605.87 191.811 C 1674.98 240.047 1736.03 297.828 1792.49 360.077 L 1015.57 360.132 L 803.424 360.112 C 732.351 360.078 665.652 356.611 595.165 371.406 C 398.235 412.74 260.189 564.068 262.149 768.72 C 264.546 1018.95 438.352 1111.06 665.929 1109.85 L 1180.28 1107.01 L 1315.12 1106.99 C 1327.46 1106.97 1340.17 1107.24 1352.57 1106.92 C 1388.42 1106.02 1427.53 1108.74 1455.18 1134.47 C 1473.18 1151.06 1475.12 1174.56 1475.09 1197.58 C 1475.05 1221.41 1473.15 1244.43 1455.43 1262.17 C 1425.8 1291.82 1389.33 1288.18 1351.03 1288.15 L 1268.42 1288.15 L 999.185 1288.14 L 56.1379 1288.21 L 49.8531 1288.06 z"></path>
<path transform="translate(0,0)" fill="rgb(236,207,205)" d="M 49.8531 1288.06 L 56.1379 1288.21 L 52.5345 1289.62 C 51.0378 1294.2 62.6742 1327.06 64.662 1333.03 C 92.7163 1417.25 129.734 1498.91 179.036 1572.66 C 181.319 1576.08 186.544 1582.74 186.347 1586.93 C 181.714 1582.9 174.437 1569.69 170.779 1564.02 C 126.903 1496.03 92.9186 1420.74 66.5331 1344.35 C 61.7064 1330.37 50.6538 1302.36 49.8531 1288.06 z"></path>
<path transform="translate(0,0)" fill="rgb(236,207,205)" d="M 1794.85 363.535 C 1803.76 367.625 1857.22 439.543 1866.21 453.222 C 1884.1 480.467 1908.78 520.156 1922.95 549.565 C 1916.84 546.846 1907.87 524.535 1903.5 517.451 C 1887.13 490.889 1872.33 464.628 1853.89 439.227 C 1835.23 413.534 1813.12 389.274 1794.85 363.535 z"></path>
</svg>